<svg width="23" height="25" viewBox="0 0 23 25" fill="none" xmlns="http://www.w3.org/2000/svg">
<path d="M3.97188 24.875C3.42188 24.875 2.94062 24.6687 2.52812 24.2562C2.11562 23.8437 1.90938 23.3625 1.90938 22.8125V3.21875H0.5V1.15625H6.9625V0.125H16.0375V1.15625H22.5V3.21875H21.0906V22.8125C21.0906 23.3625 20.8844 23.8437 20.4719 24.2562C20.0594 24.6687 19.5781 24.875 19.0281 24.875H3.97188ZM19.0281 3.21875H3.97188V22.8125H19.0281V3.21875ZM7.61563 19.8563H9.67813V6.14062H7.61563V19.8563ZM13.3219 19.8563H15.3844V6.14062H13.3219V19.8563ZM3.97188 3.21875V22.8125V3.21875Z" fill="black" fill-opacity="0.58"/>
</svg>
